<?xml version="1.0" encoding="utf-8"?>
<!-- Generator: Adobe Illustrator 23.1.0, SVG Export Plug-In . SVG Version: 6.00 Build 0)  -->
<svg version="1.1" id="filled_outline" xmlns="http://www.w3.org/2000/svg" xmlns:xlink="http://www.w3.org/1999/xlink" x="0px"
	 y="0px" viewBox="0 0 512 512" style="enable-background:new 0 0 512 512;" xml:space="preserve">
<style type="text/css">
	.st0{fill:#548AFF;}
	.st1{fill:#7DAFFF;}
	.st2{fill:#F78E00;}
</style>
<path class="st0" d="M459.3,188.5v196.9c0,8.9-3.8,17.5-10.7,23.8l-88.1,81.5c-6.8,6.3-16.1,9.9-25.8,9.9H94.3
	c-19.9,0.1-36.1-14.8-36.1-33.2c0-0.2,0-0.4,0-0.6V188.5H459.3z"/>
<path class="st1" d="M456,399.4c-1.8,3.7-4.3,7-7.4,9.9l-88.1,81.5c-3.1,2.9-6.7,5.2-10.7,6.8v-64.4c0-18.6,16.3-33.7,36.5-33.7H456
	z"/>
<g>
	<path class="st2" d="M149.3,78.9h36.5v59h-36.5V78.9z"/>
	<path class="st2" d="M258.7,188.5v-59h-36.5v59"/>
	<path class="st2" d="M295.2,45.1h36.5v59h-36.5V45.1z"/>
	<path class="st2" d="M368.1,154.8h36.5v33.7h-36.5V154.8z"/>
</g>
<path d="M61.9,496.5c8.5,8,20.2,12.6,32.4,12.5h240.5c12.1,0,23.7-4.4,32.2-12.4l88.1-81.5c8.6-7.9,13.4-18.6,13.4-29.8V188.5
	c0-4.7-4.1-8.4-9.1-8.4c0,0,0,0,0,0h-9.1v-25.3H432v25.3h-18.2v-25.3c0-4.7-4.1-8.4-9.1-8.4c0,0,0,0,0,0h-36.5c-5,0-9.1,3.8-9.1,8.4
	c0,0,0,0,0,0v25.3h-18.2v-50.6h-18.2v50.6h-18.2v-50.6h-18.2v50.6h-18.2v-50.6c0-4.7-4.1-8.4-9.1-8.4c0,0,0,0,0,0h-36.5
	c-5,0-9.1,3.8-9.1,8.4c0,0,0,0,0,0v50.6h-18.2v-16.9h-18.2v16.9h-18.2v-16.9h-18.2v16.9h-18.2v-59h-18.2v59H85.5v-25.3H67.2v25.3
	h-9.1c-5,0-9.1,3.8-9.1,8.4l0,278.2C48.8,477.9,53.4,488.6,61.9,496.5z M377.3,163.2h18.2v16.9h-18.2V163.2z M231.4,137.9h18.2v42.2
	h-18.2V137.9z M450.2,197v188.5c0,6.7-2.9,13.2-8,17.9L359,480.2v-47.1c0-14,12.3-25.3,27.4-25.3h27.4V391h-27.4
	c-25.2,0-45.6,18.9-45.6,42.2v58.4c-2,0.4-4,0.6-6,0.6H94.3c-7.3,0-14.3-2.7-19.4-7.5c-5-4.7-7.8-11.1-7.7-17.8c0,0,0-0.1,0-0.1
	l0-269.8H450.2z"/>
<path d="M140.2,137.9c0,4.7,4.1,8.4,9.1,8.4c0,0,0,0,0,0h36.5c5,0,9.1-3.8,9.1-8.4c0,0,0,0,0,0v-59c0-4.7-4.1-8.4-9.1-8.4
	c0,0,0,0,0,0h-36.5c-5,0-9.1,3.8-9.1,8.4c0,0,0,0,0,0V137.9z M158.4,87.3h18.2v42.2h-18.2V87.3z"/>
<path d="M103.7,3h18.2v101.2h-18.2V3z"/>
<path d="M67.2,3h18.2v33.7H67.2V3z"/>
<path d="M67.2,53.6h18.2v84.3H67.2V53.6z"/>
<path d="M432,3h18.2v33.7H432V3z"/>
<path d="M432,53.6h18.2v84.3H432V53.6z"/>
<path d="M140.2,3h18.2v50.6h-18.2V3z"/>
<path d="M176.7,3h18.2v16.9h-18.2V3z"/>
<path d="M176.7,36.7h18.2v16.9h-18.2V36.7z"/>
<path d="M213.1,62h18.2v42.2h-18.2V62z"/>
<path d="M249.6,3h18.2v59h-18.2V3z"/>
<path d="M249.6,78.9h18.2v25.3h-18.2V78.9z"/>
<path d="M213.1,3h18.2v42.2h-18.2V3z"/>
<path d="M286.1,104.2c0,4.7,4.1,8.4,9.1,8.4c0,0,0,0,0,0h36.5c5,0,9.1-3.8,9.1-8.4c0,0,0,0,0,0v-59c0-4.7-4.1-8.4-9.1-8.4
	c0,0,0,0,0,0h-36.5c-5,0-9.1,3.8-9.1,8.4c0,0,0,0,0,0V104.2z M304.3,53.6h18.2v42.2h-18.2V53.6z"/>
<path d="M286.1,3h18.2v16.9h-18.2V3z"/>
<path d="M322.5,3h18.2v16.9h-18.2V3z"/>
<path d="M359,53.6h18.2v75.9H359V53.6z"/>
<path d="M395.5,3h18.2v84.3h-18.2V3z"/>
<path d="M395.5,104.2h18.2v25.3h-18.2V104.2z"/>
<path d="M359,3h18.2v33.7H359V3z"/>
<path d="M158.4,239.1h27.4V256h-27.4V239.1z"/>
<path d="M204,239.1h127.7V256H204V239.1z"/>
<path d="M349.9,239.1h54.7V256h-54.7V239.1z"/>
<path d="M112.8,289.7h54.7v16.9h-54.7V289.7z"/>
<path d="M185.8,289.7h145.9v16.9H185.8V289.7z"/>
<path d="M112.8,391h100.3v16.9H112.8V391z"/>
<path d="M231.4,391h91.2v16.9h-91.2V391z"/>
<path d="M112.8,441.6h27.4v16.9h-27.4V441.6z"/>
<path d="M286.1,441.6h36.5v16.9h-36.5V441.6z"/>
<path d="M158.4,441.6h109.4v16.9H158.4V441.6z"/>
<path d="M349.9,289.7h54.7v16.9h-54.7V289.7z"/>
<path d="M112.8,340.3h18.2v16.9h-18.2V340.3z"/>
<path d="M149.3,340.3H277v16.9H149.3V340.3z"/>
<path d="M295.2,340.3h109.4v16.9H295.2V340.3z"/>
</svg>
