<svg height="512pt" viewBox="-6 0 511 512" width="512pt" xmlns="http://www.w3.org/2000/svg"><path d="m393.050781 8.535156v181.929688c.003907 3.496094-2.125 6.640625-5.375 7.933594l-37.289062 14.933593-67.328125 26.964844-6.316406 2.476563c-2.242188.9375-4.78125.855468-6.960938-.226563-2.175781-1.082031-3.777344-3.050781-4.386719-5.40625-.246093-.710937-.363281-1.464844-.34375-2.21875v-26.027344c.007813-2.832031-1.394531-5.480469-3.734375-7.074219-2.34375-1.589843-5.324218-1.914062-7.957031-.859374l-14.25 5.714843-90.367187 36.097657c-2.253907.921874-4.800782.820312-6.976563-.277344-2.175781-1.09375-3.769531-3.078125-4.371094-5.441406-.246093-.710938-.363281-1.464844-.34375-2.21875v-25.941407c.007813-2.832031-1.394531-5.480469-3.734375-7.074219-2.34375-1.589843-5.324218-1.914062-7.957031-.859374l-14.25 5.714843-90.367187 36.097657c-2.253907.921874-4.800782.820312-6.976563-.277344-2.175781-1.09375-3.769531-3.078125-4.371094-5.441406-.246093-.710938-.363281-1.464844-.34375-2.21875v-175.101563c.023438-28.269531 22.933594-51.179687 51.199219-51.199219zm0 0" fill="#fec108"/><path d="m367.453125 8.535156v181.929688c0 3.496094-2.128906 6.640625-5.378906 7.933594l-37.289063 14.933593-59.390625 23.808594c-.246093-.710937-.363281-1.464844-.34375-2.21875v-26.027344c.007813-2.832031-1.394531-5.480469-3.734375-7.074219-2.34375-1.589843-5.324218-1.914062-7.957031-.859374l-14.25 5.714843c-.601563-2.359375-2.195313-4.34375-4.371094-5.441406-2.175781-1.09375-4.722656-1.195313-6.976562-.273437l-90.367188 36.09375c-.246093-.710938-.363281-1.464844-.34375-2.21875v-25.941407c.007813-2.832031-1.394531-5.480469-3.734375-7.074219-2.34375-1.589843-5.324218-1.914062-7.957031-.859374l-14.25 5.714843c-.601563-2.359375-2.195313-4.34375-4.371094-5.441406-2.175781-1.09375-4.722656-1.195313-6.976562-.273437l-90.367188 36.09375c-.246093-.710938-.363281-1.464844-.34375-2.21875v-175.101563c.023438-28.269531 22.933594-51.179687 51.199219-51.199219zm0 0" fill="#ffdc00"/><path d="m461.316406 59.734375v25.597656c-.011718 4.707031-3.824218 8.519531-8.53125 8.535157h-332.800781c-4.707031-.015626-8.519531-3.828126-8.53125-8.535157v-25.597656c-.023437-28.269531-22.933594-51.179687-51.203125-51.199219h349.867188c28.269531.019532 51.179687 22.929688 51.199218 51.199219zm0 0" fill="#fdd834"/><path d="m435.71875 59.734375v25.597656c-.015625 4.707031-3.828125 8.519531-8.535156 8.535157h-307.199219c-4.707031-.015626-8.519531-3.828126-8.53125-8.535157v-25.597656c-.023437-28.269531-22.933594-51.179687-51.203125-51.199219h324.269531c28.265625.019532 51.175781 22.929688 51.199219 51.199219zm0 0" fill="#ffeb3a"/><path d="m246.789062 300.714844-4.109374 1.679687c-2.632813 1.074219-5.625.769531-7.984376-.816406-2.363281-1.585937-3.777343-4.242187-3.777343-7.082031v-25.890625c0-2.832031-1.40625-5.480469-3.75-7.066407-2.34375-1.589843-5.324219-1.910156-7.953125-.859374l-104.59375 41.839843c-2.628906 1.050781-5.609375.730469-7.953125-.859375-2.34375-1.585937-3.75-4.230468-3.75-7.0625v-25.992187c0-2.832031-1.40625-5.480469-3.75-7.066407-2.34375-1.589843-5.324219-1.910156-7.953125-.859374l-76.800782 30.722656c-3.238281 1.292968-5.363281 4.433594-5.363281 7.921875v195.609375c0 4.710937 3.820313 8.53125 8.535157 8.53125h366.933593c4.710938 0 8.53125-3.820313 8.53125-8.53125v-25.601563zm0 0" fill="#f0c419"/><path d="m473.863281 469.332031h-298.15625c-6.140625-.015625-11.800781-3.332031-14.820312-8.679687s-2.933594-11.90625.230469-17.175782l149.074218-248.40625c.5-.890624 1.101563-1.722656 1.792969-2.472656 3.554687-4.144531 8.894531-6.3125 14.335937-5.820312 5.4375.492187 10.300782 3.582031 13.054688 8.292968l149.078125 248.40625c3.160156 5.269532 3.25 11.828126.230469 17.175782-3.019532 5.347656-8.679688 8.664062-14.820313 8.679687zm0 0" fill="#c81e1e"/><path d="m448.261719 469.332031h-272.554688c-6.140625-.015625-11.800781-3.332031-14.820312-8.679687s-2.933594-11.90625.230469-17.175782l149.074218-248.40625c.5-.890624 1.101563-1.722656 1.792969-2.472656.691406.75 1.292969 1.582032 1.792969 2.472656l11.007812 18.347657 138.070313 230.058593c3.160156 5.269532 3.246093 11.828126.226562 17.175782s-8.675781 8.664062-14.820312 8.679687zm0 0" fill="#f44335"/><path d="m324.785156 256c9.425782 0 17.066406 7.640625 17.066406 17.066406v85.332032c0 9.425781-7.640624 17.066406-17.066406 17.066406-9.425781 0-17.066406-7.640625-17.066406-17.066406v-85.332032c0-9.425781 7.640625-17.066406 17.066406-17.066406zm0 0" fill="#cfd8dc"/><path d="m324.785156 401.066406c9.425782 0 17.066406 7.640625 17.066406 17.066406 0 9.425782-7.640624 17.066407-17.066406 17.066407-9.425781 0-17.066406-7.640625-17.066406-17.066407 0-9.425781 7.640625-17.066406 17.066406-17.066406zm0 0" fill="#cfd8dc"/><path d="m393.050781 512h-384c-4.710937 0-8.53125-3.820312-8.53125-8.535156v-209.917969c0-4.714844 3.820313-8.535156 8.53125-8.535156 4.714844 0 8.535157 3.820312 8.535157 8.535156v201.386719h366.933593v-25.601563c0-4.710937 3.820313-8.53125 8.53125-8.53125 4.714844 0 8.535157 3.820313 8.535157 8.53125v34.132813c0 4.714844-3.820313 8.535156-8.535157 8.535156zm0 0"/><path d="m393.050781 204.800781c-4.710937 0-8.53125-3.820312-8.53125-8.535156v-102.398437c0-4.714844 3.820313-8.535157 8.53125-8.535157 4.714844 0 8.535157 3.820313 8.535157 8.535157v102.398437c0 4.714844-3.820313 8.535156-8.535157 8.535156zm0 0"/><path d="m9.050781 256c-4.710937 0-8.53125-3.820312-8.53125-8.535156v-187.730469c0-4.714844 3.820313-8.535156 8.53125-8.535156 4.714844 0 8.535157 3.820312 8.535157 8.535156v187.730469c0 4.714844-3.820313 8.535156-8.535157 8.535156zm0 0"/><path d="m452.785156 102.398438h-332.800781c-9.421875-.007813-17.058594-7.644532-17.066406-17.066407v-25.597656c-.027344-23.554687-19.113281-42.640625-42.667969-42.667969-4.710938 0-8.53125-3.820312-8.53125-8.53125 0-4.714844 3.820312-8.535156 8.53125-8.535156h349.867188c32.976562.0351562 59.699218 26.757812 59.734374 59.734375v25.597656c-.007812 9.421875-7.644531 17.058594-17.066406 17.066407zm-350.765625-85.332032c11.496094 11.21875 17.972657 26.605469 17.964844 42.667969v25.597656h332.800781v-25.597656c-.027344-23.554687-19.113281-42.640625-42.667968-42.667969zm0 0"/><path d="m9.050781 102.398438c-4.710937 0-8.53125-3.820313-8.53125-8.53125v-34.132813c.035157-32.976563 26.757813-59.6992188 59.730469-59.734375 3.050781 0 5.867188 1.625 7.390625 4.265625s1.523437 5.894531 0 8.535156-4.339844 4.265625-7.390625 4.265625c-23.550781.027344-42.636719 19.113282-42.664062 42.667969v34.132813c0 4.710937-3.820313 8.53125-8.535157 8.53125zm0 0"/><path d="m9.054688 256.003906c-4.097657.011719-7.625-2.894531-8.398438-6.917968-.777344-4.023438 1.417969-8.03125 5.222656-9.542969l128-51.203125c2.632813-1.050782 5.613282-.730469 7.957032.859375 2.34375 1.585937 3.75 4.234375 3.75 7.066406v51.199219c0 4.714844-3.820313 8.535156-8.535157 8.535156-4.710937 0-8.53125-3.820312-8.53125-8.535156v-38.59375l-116.296875 46.519531c-1.007812.402344-2.082031.613281-3.167968.613281zm0 0"/><path d="m137.050781 256.003906c-4.097656.011719-7.625-2.894531-8.398437-6.917968-.777344-4.023438 1.417968-8.03125 5.222656-9.542969l128-51.203125c2.632812-1.050782 5.613281-.734375 7.960938.855468 2.34375 1.589844 3.75 4.238282 3.75 7.070313v51.199219c0 4.714844-3.820313 8.535156-8.535157 8.535156-4.710937 0-8.53125-3.820312-8.53125-8.535156v-38.59375l-116.296875 46.519531c-1.007812.402344-2.085937.613281-3.171875.613281zm0 0"/><path d="m265.054688 256.003906c-4.101563.011719-7.628907-2.898437-8.402344-6.925781-.769532-4.027344 1.433594-8.035156 5.246094-9.542969l18.003906-7.167968c2.835937-1.128907 6.054687-.65625 8.445312 1.234374 2.390625 1.886719 3.59375 4.910157 3.15625 7.925782-.441406 3.019531-2.457031 5.570312-5.292968 6.699218l-18.003907 7.167969c-1 .402344-2.070312.609375-3.152343.609375zm0 0"/><path d="m350.390625 221.871094c-4.097656.011718-7.625-2.894532-8.402344-6.917969-.777343-4.023437 1.417969-8.03125 5.226563-9.542969l42.664062-17.070312c2.832032-1.132813 6.054688-.667969 8.449219 1.21875 2.398437 1.886718 3.605469 4.90625 3.171875 7.925781-.433594 3.015625-2.445312 5.574219-5.277344 6.707031l-42.667968 17.066406c-1.007813.402344-2.082032.609376-3.164063.613282zm0 0"/><path d="m102.917969 315.734375c-4.710938 0-8.53125-3.820313-8.53125-8.535156v-38.59375l-82.164063 32.867187c-2.832031 1.132813-6.050781.667969-8.449218-1.21875-2.394532-1.886718-3.605469-4.90625-3.171876-7.925781.4375-3.015625 2.449219-5.574219 5.277344-6.707031l93.867188-37.546875c2.628906-1.050781 5.613281-.730469 7.957031.855469 2.34375 1.589843 3.75 4.238281 3.75 7.070312v51.199219c0 4.714843-3.820313 8.535156-8.535156 8.535156zm0 0"/><path d="m102.921875 315.738281c-4.097656.007813-7.625-2.894531-8.398437-6.917969-.777344-4.023437 1.417968-8.03125 5.222656-9.546874l128-51.199219c2.628906-1.050781 5.609375-.730469 7.957031.855469 2.34375 1.589843 3.75 4.238281 3.75 7.070312v51.199219c0 4.714843-3.820313 8.535156-8.535156 8.535156-4.710938 0-8.53125-3.820313-8.53125-8.535156v-38.59375l-116.296875 46.519531c-1.007813.402344-2.082032.609375-3.167969.613281zm0 0"/><path d="m230.921875 315.738281c-4.082031.007813-7.597656-2.882812-8.386719-6.890625-.785156-4.003906 1.375-8.007812 5.160156-9.546875l15.871094-6.484375c2.828125-1.195312 6.085938-.777344 8.519532 1.09375 2.4375 1.875 3.675781 4.914063 3.25 7.957032-.429688 3.042968-2.460938 5.621093-5.320313 6.746093l-15.871094 6.484375c-1.023437.421875-2.117187.636719-3.222656.640625zm0 0"/><path d="m473.84375 477.867188h-298.117188c-9.222656 0-17.730468-4.960938-22.277343-12.988282-4.542969-8.027344-4.417969-17.875.328125-25.785156l149.058594-248.425781c4.625-7.710938 12.957031-12.425781 21.949218-12.425781 8.992188 0 17.324219 4.714843 21.949219 12.425781l149.058594 248.425781c4.746093 7.910156 4.871093 17.757812.324219 25.785156-4.542969 8.027344-13.050782 12.988282-22.273438 12.988282zm-149.058594-282.5625c-3.003906-.027344-5.796875 1.554687-7.316406 4.144531l-149.058594 248.429687c-1.582031 2.636719-1.621094 5.917969-.105468 8.59375 1.511718 2.671875 4.347656 4.328125 7.421874 4.328125h298.117188c3.074219 0 5.910156-1.65625 7.421875-4.328125 1.515625-2.675781 1.472656-5.957031-.105469-8.59375l-149.058594-248.429687c-1.523437-2.589844-4.3125-4.171875-7.316406-4.144531zm0 0"/><path d="m324.785156 384c-14.132812-.015625-25.585937-11.46875-25.601562-25.601562v-85.332032c0-14.136718 11.460937-25.601562 25.601562-25.601562 14.136719 0 25.601563 11.464844 25.601563 25.601562v85.332032c-.015625 14.132812-11.46875 25.585937-25.601563 25.601562zm0-119.464844c-4.710937.003906-8.527344 3.820313-8.535156 8.53125v85.332032c0 4.714843 3.820312 8.535156 8.535156 8.535156 4.710938 0 8.53125-3.820313 8.53125-8.535156v-85.332032c-.003906-4.710937-3.820312-8.527344-8.53125-8.53125zm0 0"/><path d="m324.785156 443.734375c-14.140625 0-25.601562-11.460937-25.601562-25.601563 0-14.136718 11.460937-25.597656 25.601562-25.597656 14.136719 0 25.601563 11.460938 25.601563 25.597656-.015625 14.132813-11.46875 25.585938-25.601563 25.601563zm0-34.132813c-4.714844 0-8.535156 3.820313-8.535156 8.53125 0 4.714844 3.820312 8.535157 8.535156 8.535157 4.710938 0 8.53125-3.820313 8.53125-8.535157-.003906-4.710937-3.820312-8.527343-8.53125-8.53125zm0 0"/><path d="m154.117188 51.199219h-8.53125c-4.714844 0-8.535157-3.820313-8.535157-8.53125 0-4.714844 3.820313-8.535157 8.535157-8.535157h8.53125c4.714843 0 8.535156 3.820313 8.535156 8.535157 0 4.710937-3.820313 8.53125-8.535156 8.53125zm0 0"/><path d="m418.652344 51.199219h-230.402344c-4.710938 0-8.53125-3.820313-8.53125-8.53125 0-4.714844 3.820312-8.535157 8.53125-8.535157h230.402344c4.710937 0 8.53125 3.820313 8.53125 8.535157 0 4.710937-3.820313 8.53125-8.53125 8.53125zm0 0"/><path d="m51.71875 477.867188h-8.535156c-4.710938 0-8.53125-3.820313-8.53125-8.535157 0-4.710937 3.820312-8.53125 8.53125-8.53125h8.535156c4.710938 0 8.53125 3.820313 8.53125 8.53125 0 4.714844-3.820312 8.535157-8.53125 8.535157zm0 0"/><path d="m128.519531 477.867188h-42.667969c-4.710937 0-8.535156-3.820313-8.535156-8.535157 0-4.710937 3.824219-8.53125 8.535156-8.53125h42.667969c4.710938 0 8.53125 3.820313 8.53125 8.53125 0 4.714844-3.820312 8.535157-8.53125 8.535157zm0 0"/></svg>